<svg xmlns="http://www.w3.org/2000/svg" xmlns:xlink="http://www.w3.org/1999/xlink" width="28.079" height="22.258" viewBox="0 0 28.079 22.258">
  <defs>
    <linearGradient id="linear-gradient" x1="0.5" x2="0.5" y2="1" gradientUnits="objectBoundingBox">
      <stop offset="0" stop-color="#ff8e12"/>
      <stop offset="1" stop-color="#ff6418"/>
    </linearGradient>
  </defs>
  <g id="Group_35603" data-name="Group 35603" transform="translate(0 0)">
    <g id="Group_35566" data-name="Group 35566" transform="translate(0 0)">
      <g id="Group_35564" data-name="Group 35564" transform="translate(0)">
        <path id="heart" d="M8.966,15.509a.525.525,0,0,1-.263-.07,31.372,31.372,0,0,1-4.312-3.1A17.787,17.787,0,0,1,1.4,9.13,6.76,6.76,0,0,1,0,5.285,5.552,5.552,0,0,1,1.416,1.567,4.642,4.642,0,0,1,4.872,0,4.8,4.8,0,0,1,8.966,2.428,4.8,4.8,0,0,1,13.06,0a4.668,4.668,0,0,1,3.322,1.414,5.473,5.473,0,0,1,1.55,3.878,6.892,6.892,0,0,1-1.426,3.84,18.017,18.017,0,0,1-2.987,3.2,31.48,31.48,0,0,1-4.289,3.1.526.526,0,0,1-.264.071Z" transform="matrix(0.875, -0.485, 0.485, 0.875, 0, 8.694)" fill="url(#linear-gradient)"/>
        <path id="heart-2" data-name="heart" d="M6.836,11.824a.4.4,0,0,1-.2-.054A23.919,23.919,0,0,1,3.348,9.4a13.561,13.561,0,0,1-2.28-2.444A5.154,5.154,0,0,1,0,4.029,4.233,4.233,0,0,1,1.08,1.195,3.539,3.539,0,0,1,3.715,0,3.656,3.656,0,0,1,6.836,1.851,3.656,3.656,0,0,1,9.957,0,3.559,3.559,0,0,1,12.49,1.078a4.173,4.173,0,0,1,1.182,2.957,5.254,5.254,0,0,1-1.088,2.927A13.737,13.737,0,0,1,10.307,9.4a24,24,0,0,1-3.27,2.366.4.4,0,0,1-.2.054Z" transform="translate(15.658 4.087) rotate(31)" fill="url(#linear-gradient)"/>
        <path id="heart_-_Outline" data-name="heart - Outline" d="M7.348,12.848a.914.914,0,0,1-.456-.122A24.473,24.473,0,0,1,3.526,10.3,14.066,14.066,0,0,1,1.159,7.766,5.647,5.647,0,0,1,0,4.538,4.744,4.744,0,0,1,1.213,1.362a4.021,4.021,0,0,1,6.135.12,4.027,4.027,0,0,1,6.017-.253A4.688,4.688,0,0,1,14.7,4.549a5.748,5.748,0,0,1-1.18,3.217A14.242,14.242,0,0,1,11.154,10.3a24.568,24.568,0,0,1-3.347,2.421A.914.914,0,0,1,7.348,12.848ZM4.226,1.024A3.033,3.033,0,0,0,1.97,2.051a3.722,3.722,0,0,0-.946,2.493A4.663,4.663,0,0,0,2,7.181,13.056,13.056,0,0,0,4.194,9.529a23.556,23.556,0,0,0,3.153,2.277,23.66,23.66,0,0,0,3.136-2.277A13.232,13.232,0,0,0,12.676,7.18a4.763,4.763,0,0,0,1-2.637A3.658,3.658,0,0,0,12.639,1.95a3.051,3.051,0,0,0-2.17-.927,3.13,3.13,0,0,0-2.681,1.6l-.44.742-.44-.742A3.13,3.13,0,0,0,4.226,1.024Z" transform="translate(15.483 3.384) rotate(31)" fill="#fff"/>
      </g>
    </g>
  </g>
</svg>
