<svg id="Group_35603" data-name="Group 35603" xmlns="http://www.w3.org/2000/svg" width="27.134" height="21.502" viewBox="0 0 27.134 21.502">
  <g id="Group_35566" data-name="Group 35566" transform="translate(0 0)">
    <g id="Group_35564" data-name="Group 35564" transform="translate(0 0)">
      <path id="heart" d="M8.662,14.982a.507.507,0,0,1-.254-.068,30.307,30.307,0,0,1-4.166-3,17.183,17.183,0,0,1-2.889-3.1A6.531,6.531,0,0,1,0,5.105,5.363,5.363,0,0,1,1.368,1.514,4.484,4.484,0,0,1,4.707,0,4.633,4.633,0,0,1,8.662,2.346,4.633,4.633,0,0,1,12.617,0a4.51,4.51,0,0,1,3.209,1.366,5.287,5.287,0,0,1,1.5,3.746,6.658,6.658,0,0,1-1.378,3.709,17.406,17.406,0,0,1-2.885,3.095,30.412,30.412,0,0,1-4.143,3,.508.508,0,0,1-.255.069Z" transform="matrix(0.875, -0.485, 0.485, 0.875, 0, 8.398)" fill="#de2657"/>
      <path id="heart-2" data-name="heart" d="M6.6,11.423a.386.386,0,0,1-.193-.052A23.107,23.107,0,0,1,3.234,9.086a13.1,13.1,0,0,1-2.2-2.361A4.979,4.979,0,0,1,0,3.893,4.089,4.089,0,0,1,1.043,1.154,3.419,3.419,0,0,1,3.589,0,3.532,3.532,0,0,1,6.6,1.789,3.532,3.532,0,0,1,9.619,0a3.439,3.439,0,0,1,2.447,1.041A4.031,4.031,0,0,1,13.208,3.9a5.076,5.076,0,0,1-1.051,2.828,13.27,13.27,0,0,1-2.2,2.36A23.187,23.187,0,0,1,6.8,11.37a.387.387,0,0,1-.195.052Z" transform="translate(15.126 3.948) rotate(31)" fill="#de2657" stroke="#fff" stroke-width="1"/>
    </g>
  </g>
</svg>
