<svg xmlns="http://www.w3.org/2000/svg" width="20" height="20" viewBox="0 0 20 20"><defs><style>.a{fill:#de2657;}.b{fill:#fafafa;}</style></defs><g transform="translate(-371 -108)"><g transform="translate(371 108)"><path class="a" d="M10,0A10,10,0,1,0,20,10,10.011,10.011,0,0,0,10,0Zm0,0"/><path class="b" d="M132.251,128.71H128.71v3.542a.833.833,0,1,1-1.667,0V128.71H123.5a.833.833,0,1,1,0-1.667h3.542V123.5a.833.833,0,1,1,1.667,0v3.542h3.542a.833.833,0,1,1,0,1.667Zm0,0" transform="translate(-117.876 -117.876)"/></g></g></svg>