<svg xmlns="http://www.w3.org/2000/svg" xmlns:xlink="http://www.w3.org/1999/xlink" width="53.287" height="53.287" viewBox="0 0 53.287 53.287"><defs><style>.a{fill:#fff;}.b{fill:#de2657;}.c{filter:url(#a);}</style><filter id="a" x="0" y="0" width="53.287" height="53.287" filterUnits="userSpaceOnUse"><feOffset input="SourceAlpha"/><feGaussianBlur stdDeviation="2" result="b"/><feFlood flood-color="#6d6d6d" flood-opacity="0.329"/><feComposite operator="in" in2="b"/><feComposite in="SourceGraphic"/></filter></defs><g transform="translate(-13 -12)"><g class="c" transform="matrix(1, 0, 0, 1, 13, 12)"><path class="a" d="M20.644,0A20.644,20.644,0,1,1,0,20.644,20.644,20.644,0,0,1,20.644,0Z" transform="translate(6 6)"/></g><path class="b" d="M21,11H5.414l5.293-5.293A1,1,0,1,0,9.293,4.293l-7,7a1,1,0,0,0,0,1.414l7,7a1,1,0,1,0,1.414-1.414L5.414,13H21a1,1,0,0,0,0-2Z" transform="translate(27 27)"/></g></svg>