<svg xmlns="http://www.w3.org/2000/svg" width="34.96" height="32.775" viewBox="0 0 34.96 32.775"><defs><style>.a{fill:#9b9b9b;}</style></defs><g transform="translate(0 -0.079)"><path class="a" d="M17.411,16C7.811,16,0,22.891,0,31.363a14.316,14.316,0,0,0,3.994,9.795,6.228,6.228,0,0,1-1.645,5.868,1.025,1.025,0,0,0,.724,1.748,11.293,11.293,0,0,0,7.823-3.16,19.314,19.314,0,0,0,6.516,1.111c9.6,0,17.548-6.891,17.548-15.363S27.012,16,17.411,16ZM9.354,34.436a3.073,3.073,0,1,1,3.073-3.073A3.076,3.076,0,0,1,9.354,34.436Zm8.194,0a3.073,3.073,0,1,1,3.073-3.073A3.076,3.076,0,0,1,17.548,34.436Zm8.194,0a3.073,3.073,0,1,1,3.073-3.073A3.076,3.076,0,0,1,25.742,34.436Z" transform="translate(0 -15.921)"/></g></svg>