<svg xmlns="http://www.w3.org/2000/svg" xmlns:xlink="http://www.w3.org/1999/xlink" width="41.582" height="41.582" viewBox="0 0 41.582 41.582"><defs><style>.a{fill:#de2657;}.b{fill:#fff;}.c{filter:url(#a);}</style><filter id="a" x="0" y="0" width="41.582" height="41.582" filterUnits="userSpaceOnUse"><feOffset dy="1" input="SourceAlpha"/><feGaussianBlur stdDeviation="1.5" result="b"/><feFlood flood-opacity="0.459"/><feComposite operator="in" in2="b"/><feComposite in="SourceGraphic"/></filter></defs><g transform="translate(-321.266 -650.209)"><g transform="translate(325.766 653.709)"><g class="c" transform="matrix(1, 0, 0, 1, -4.5, -3.5)"><path class="a" d="M16.291,0A16.291,16.291,0,1,1,0,16.291,16.291,16.291,0,0,1,16.291,0Z" transform="translate(4.5 3.5)"/></g></g><g transform="translate(331.573 662.154)"><path class="b" d="M8.75,17.612v3.494a.565.565,0,0,0,1.02.335l2.044-2.782Z" transform="translate(-2.158 -4.343)"/><path class="b" d="M17.845.1a.565.565,0,0,0-.589-.041L.3,8.917A.565.565,0,0,0,.382,9.953l4.713,1.611L15.131,2.982,7.365,12.339l7.9,2.7a.578.578,0,0,0,.182.03A.565.565,0,0,0,16,14.587L18.076.649A.566.566,0,0,0,17.845.1Z" transform="translate(0 0)"/></g></g></svg>