<svg xmlns="http://www.w3.org/2000/svg" xmlns:xlink="http://www.w3.org/1999/xlink" width="36.79" height="36.79" viewBox="0 0 36.79 36.79"><defs><style>.a{fill:#fff;}.b{fill:#ff8e12;}.c{filter:url(#a);}</style><filter id="a" x="0" y="0" width="36.79" height="36.79" filterUnits="userSpaceOnUse"><feOffset input="SourceAlpha"/><feGaussianBlur stdDeviation="2" result="b"/><feFlood flood-opacity="0.271"/><feComposite operator="in" in2="b"/><feComposite in="SourceGraphic"/></filter></defs><g transform="translate(-102.605 -146.605)"><g class="c" transform="matrix(1, 0, 0, 1, 102.61, 146.61)"><path class="a" d="M12.395,0A12.395,12.395,0,1,1,0,12.395,12.395,12.395,0,0,1,12.395,0Z" transform="translate(6 6)"/></g><g transform="translate(-47 -3.138)"><path class="b" d="M163.955,173.136a.952.952,0,0,1-.674-1.628l8.09-8.09a.953.953,0,1,1,1.348,1.348l-8.09,8.09a.947.947,0,0,1-.674.279Z"/><path class="b" d="M172.078,173.136a.951.951,0,0,1-.674-.279l-8.09-8.09a.953.953,0,1,1,1.348-1.348l8.09,8.09a.952.952,0,0,1-.674,1.628Z" transform="translate(-0.032)"/></g></g></svg>