<svg xmlns="http://www.w3.org/2000/svg" width="30.573" height="34.617" viewBox="0 0 30.573 34.617"><defs><style>.a,.b{fill:#de2657;}.b{stroke:#fff;}.c,.d{stroke:none;}.d{fill:#fff;}.e{fill:none;}</style></defs><g transform="translate(-130 -684.616)"><g class="a" transform="translate(130 687.832)"><path class="c" d="M 14.54837512969971 27.72578048706055 L 4.00000524520874 27.72578048706055 C 2.070095062255859 27.72578048706055 0.5000051856040955 26.15569114685059 0.5000051856040955 24.22578048706055 L 0.5000051856040955 4.000001430511475 C 0.5000051856040955 2.070091247558594 2.070095062255859 0.5000011920928955 4.00000524520874 0.5000011920928955 L 14.54837512969971 0.5000011920928955 C 16.47828483581543 0.5000011920928955 18.04837608337402 2.070091247558594 18.04837608337402 4.000001430511475 L 18.04837608337402 24.22578048706055 C 18.04837608337402 26.15569114685059 16.47828483581543 27.72578048706055 14.54837512969971 27.72578048706055 Z"/><path class="d" d="M 3.999995231628418 1.000001907348633 C 2.345785140991211 1.000001907348633 0.9999942779541016 2.345790863037109 0.9999942779541016 4.000001907348633 L 0.9999942779541016 24.22578048706055 C 0.9999942779541016 25.87999153137207 2.345785140991211 27.22578048706055 3.999995231628418 27.22578048706055 L 14.54836463928223 27.22578048706055 C 16.20257568359375 27.22578048706055 17.54836463928223 25.87999153137207 17.54836463928223 24.22578048706055 L 17.54836463928223 4.000001907348633 C 17.54836463928223 2.345790863037109 16.20257568359375 1.000001907348633 14.54836463928223 1.000001907348633 L 3.999995231628418 1.000001907348633 M 3.999995231628418 1.9073486328125e-06 L 14.54836463928223 1.9073486328125e-06 C 16.75750541687012 1.9073486328125e-06 18.54836463928223 1.790861129760742 18.54836463928223 4.000001907348633 L 18.54836463928223 24.22578048706055 C 18.54836463928223 26.43492126464844 16.75750541687012 28.22578048706055 14.54836463928223 28.22578048706055 L 3.999995231628418 28.22578048706055 C 1.790864944458008 28.22578048706055 -5.7220458984375e-06 26.43492126464844 -5.7220458984375e-06 24.22578048706055 L -5.7220458984375e-06 4.000001907348633 C -5.7220458984375e-06 1.790861129760742 1.790864944458008 1.9073486328125e-06 3.999995231628418 1.9073486328125e-06 Z"/></g><g class="b" transform="translate(143.143 684.616) rotate(20)"><rect class="c" width="18.548" height="30.088" rx="4"/><rect class="e" x="0.5" y="0.5" width="17.548" height="29.088" rx="3.5"/></g></g></svg>