<svg xmlns="http://www.w3.org/2000/svg" xmlns:xlink="http://www.w3.org/1999/xlink" width="53.287" height="53.287" viewBox="0 0 53.287 53.287"><defs><style>.a{fill:#fff;}.b{fill:#de2657;}.c{filter:url(#a);}</style><filter id="a" x="0" y="0" width="53.287" height="53.287" filterUnits="userSpaceOnUse"><feOffset input="SourceAlpha"/><feGaussianBlur stdDeviation="2" result="b"/><feFlood flood-color="#6d6d6d" flood-opacity="0.541"/><feComposite operator="in" in2="b"/><feComposite in="SourceGraphic"/></filter></defs><g transform="translate(-351.713 -5.856)"><g transform="translate(0 4)"><g class="c" transform="matrix(1, 0, 0, 1, 351.71, 1.86)"><path class="a" d="M20.644,0A20.644,20.644,0,1,1,0,20.644,20.644,20.644,0,0,1,20.644,0Z" transform="translate(6 6)"/></g><g transform="translate(368.641 18.784)"><path class="b" d="M262.616,72.83h9.772c.448,0,.9.006,1.347,0h.019a.85.85,0,1,0,0-1.7h-9.772c-.448,0-.9-.006-1.347,0h-.019a.85.85,0,1,0,0,1.7Z" transform="translate(-255.56 -69.333)"/><path class="b" d="M102.936,72.9h2.635a.85.85,0,0,0,0-1.7h-2.635a.85.85,0,0,0,0,1.7Z" transform="translate(-102.085 -69.404)"/><path class="b" d="M172.427,28.556a2.2,2.2,0,0,1-.236-.015c.074.011.151.021.225.03a1.98,1.98,0,0,1-.468-.128l.2.085a1.88,1.88,0,0,1-.385-.225l.172.134a1.907,1.907,0,0,1-.334-.334l.134.172a1.842,1.842,0,0,1-.225-.385c.028.068.057.136.085.2a1.8,1.8,0,0,1-.128-.468c.011.074.021.151.03.225a1.946,1.946,0,0,1,0-.472c-.011.074-.021.151-.03.225a1.979,1.979,0,0,1,.128-.468c-.028.068-.057.136-.085.2a1.882,1.882,0,0,1,.225-.385l-.134.172a1.906,1.906,0,0,1,.334-.334l-.172.134a1.841,1.841,0,0,1,.385-.225l-.2.085a1.8,1.8,0,0,1,.468-.128c-.074.011-.151.021-.225.03a1.947,1.947,0,0,1,.472,0c-.074-.011-.151-.021-.225-.03a1.98,1.98,0,0,1,.468.128l-.2-.085a1.881,1.881,0,0,1,.385.225l-.172-.134a1.907,1.907,0,0,1,.334.334l-.134-.172a1.842,1.842,0,0,1,.225.385c-.028-.068-.057-.136-.085-.2a1.8,1.8,0,0,1,.128.468c-.011-.074-.021-.151-.03-.225a1.946,1.946,0,0,1,0,.472c.011-.074.021-.151.03-.225a1.979,1.979,0,0,1-.128.468c.028-.068.057-.136.085-.2a1.881,1.881,0,0,1-.225.385l.134-.172a1.907,1.907,0,0,1-.334.334l.172-.134a1.842,1.842,0,0,1-.385.225l.2-.085a1.8,1.8,0,0,1-.468.128c.074-.011.151-.021.225-.03a2.2,2.2,0,0,1-.236.015.883.883,0,0,0-.6.249.851.851,0,0,0,.6,1.452A2.6,2.6,0,0,0,173.9,29.8a3.009,3.009,0,0,0,.682-.672,2.625,2.625,0,0,0-.423-3.507,3,3,0,0,0-.818-.485,2.63,2.63,0,0,0-3.286,1.316,3.116,3.116,0,0,0-.172.442,3.072,3.072,0,0,0-.083.48,2.606,2.606,0,0,0,.049.812,2.536,2.536,0,0,0,.844,1.413,3,3,0,0,0,.869.506,2.5,2.5,0,0,0,.865.147.85.85,0,1,0,0-1.7Z" transform="translate(-167.156 -24.972)"/><path class="b" d="M475.906,259.93h2.848a.85.85,0,0,0,0-1.7h-2.848a.85.85,0,0,0,0,1.7Z" transform="translate(-460.561 -249.165)"/><path class="b" d="M102.936,259.86h9.579c.442,0,.884.006,1.326,0h.019a.85.85,0,1,0,0-1.7h-9.579c-.442,0-.884-.006-1.326,0h-.019a.85.85,0,1,0,0,1.7Z" transform="translate(-102.085 -249.095)"/><path class="b" d="M385.6,215.586a2.2,2.2,0,0,1-.236-.015c.074.011.151.021.225.03a1.979,1.979,0,0,1-.468-.128l.2.085a1.882,1.882,0,0,1-.385-.225l.172.134a1.905,1.905,0,0,1-.334-.334l.134.172a1.842,1.842,0,0,1-.225-.385c.028.068.057.136.085.2a1.8,1.8,0,0,1-.128-.468c.011.074.021.151.03.225a1.943,1.943,0,0,1,0-.472c-.011.074-.021.151-.03.225a1.979,1.979,0,0,1,.128-.468c-.028.068-.057.136-.085.2a1.878,1.878,0,0,1,.225-.385l-.134.172a1.908,1.908,0,0,1,.334-.334l-.172.134a1.842,1.842,0,0,1,.385-.225l-.2.085a1.8,1.8,0,0,1,.468-.128c-.074.011-.151.021-.225.03a1.947,1.947,0,0,1,.472,0c-.074-.011-.151-.021-.225-.03a1.98,1.98,0,0,1,.468.128l-.2-.085a1.879,1.879,0,0,1,.385.225l-.172-.134a1.908,1.908,0,0,1,.334.334l-.134-.172a1.836,1.836,0,0,1,.225.385c-.028-.068-.057-.136-.085-.2a1.792,1.792,0,0,1,.128.468c-.011-.074-.021-.151-.03-.225a1.949,1.949,0,0,1,0,.472c.011-.074.021-.151.03-.225a1.976,1.976,0,0,1-.128.468c.028-.068.057-.136.085-.2a1.879,1.879,0,0,1-.225.385l.134-.172a1.908,1.908,0,0,1-.334.334l.172-.134a1.842,1.842,0,0,1-.385.225l.2-.085a1.8,1.8,0,0,1-.468.128c.074-.011.151-.021.225-.03a2.2,2.2,0,0,1-.236.015.883.883,0,0,0-.6.249.851.851,0,0,0,.6,1.452,2.6,2.6,0,0,0,1.473-.453,3.009,3.009,0,0,0,.682-.672,2.625,2.625,0,0,0-.423-3.507,3.006,3.006,0,0,0-.818-.485,2.628,2.628,0,0,0-.769-.161,2.63,2.63,0,0,0-2.521,1.477,3.116,3.116,0,0,0-.172.442,3.073,3.073,0,0,0-.083.48,2.607,2.607,0,0,0,.049.812,2.536,2.536,0,0,0,.844,1.413,3,3,0,0,0,.869.506,2.5,2.5,0,0,0,.865.147.85.85,0,0,0,0-1.7Z" transform="translate(-372.043 -204.734)"/><path class="b" d="M350.116,446.9h6.777c.315,0,.629.006.944,0h.015a.85.85,0,0,0,0-1.7h-6.777c-.315,0-.629-.006-.944,0h-.015a.85.85,0,0,0,0,1.7Z" transform="translate(-339.659 -428.866)"/><path class="b" d="M102.936,446.97h6.036a.85.85,0,0,0,0-1.7h-6.036a.85.85,0,0,0,0,1.7Z" transform="translate(-102.085 -428.936)"/><path class="b" d="M259.823,402.616a2.2,2.2,0,0,1-.236-.015c.074.011.151.021.225.03a1.979,1.979,0,0,1-.468-.128l.2.085a1.877,1.877,0,0,1-.385-.225l.172.134a1.911,1.911,0,0,1-.334-.334l.134.172a1.841,1.841,0,0,1-.225-.385c.028.068.057.136.085.2a1.8,1.8,0,0,1-.128-.468c.011.074.021.151.03.225a1.949,1.949,0,0,1,0-.472c-.011.074-.021.151-.03.225A1.981,1.981,0,0,1,259,401.2c-.028.068-.057.136-.085.2a1.884,1.884,0,0,1,.225-.385l-.134.172a1.909,1.909,0,0,1,.334-.334l-.172.134a1.841,1.841,0,0,1,.385-.225l-.2.085a1.8,1.8,0,0,1,.468-.128c-.074.011-.151.021-.225.03a1.943,1.943,0,0,1,.472,0c-.074-.011-.151-.021-.225-.03a1.976,1.976,0,0,1,.468.128l-.2-.085a1.882,1.882,0,0,1,.385.225l-.172-.134a1.9,1.9,0,0,1,.334.334l-.134-.172a1.845,1.845,0,0,1,.225.385c-.028-.068-.057-.136-.085-.2a1.792,1.792,0,0,1,.128.468c-.011-.074-.021-.151-.03-.225a1.946,1.946,0,0,1,0,.472c.011-.074.021-.151.03-.225a1.978,1.978,0,0,1-.128.468c.028-.068.057-.136.085-.2a1.881,1.881,0,0,1-.225.385l.134-.172a1.9,1.9,0,0,1-.334.334l.172-.134a1.84,1.84,0,0,1-.385.225l.2-.085a1.8,1.8,0,0,1-.468.128c.074-.011.151-.021.225-.03a2.2,2.2,0,0,1-.236.015.882.882,0,0,0-.6.249.851.851,0,0,0,.6,1.452,2.6,2.6,0,0,0,1.473-.453,3.01,3.01,0,0,0,.682-.672,2.625,2.625,0,0,0-.423-3.507,3.005,3.005,0,0,0-.818-.485,2.628,2.628,0,0,0-.769-.162,2.63,2.63,0,0,0-2.521,1.477,3.117,3.117,0,0,0-.172.442,3.061,3.061,0,0,0-.083.48,2.605,2.605,0,0,0,.049.812,2.536,2.536,0,0,0,.844,1.413,3,3,0,0,0,.869.506,2.5,2.5,0,0,0,.865.147.85.85,0,0,0,0-1.7Z" transform="translate(-251.151 -384.496)"/></g></g></g></svg>