<svg xmlns="http://www.w3.org/2000/svg" xmlns:xlink="http://www.w3.org/1999/xlink" width="58" height="58" viewBox="0 0 58 58"><defs><style>.a{fill:none;stroke:#de2657;stroke-width:2px;}.b{fill:url(#a);}</style><linearGradient id="a" x1="0.5" x2="0.5" y2="1" gradientUnits="objectBoundingBox"><stop offset="0" stop-color="#ff2b63"/><stop offset="1" stop-color="#8f062b"/></linearGradient></defs><g transform="translate(-312 -594)"><g transform="translate(313 595)"><g transform="translate(0 0)"><circle class="a" cx="28" cy="28" r="28"/></g><circle class="a" cx="28" cy="28" r="28"/></g><g transform="translate(325.451 611.277)"><path class="b" d="M112.885,121a7.925,7.925,0,0,0-6.839,4.2,7.925,7.925,0,0,0-6.839-4.2,7.766,7.766,0,0,0-5.977,2.765A9.669,9.669,0,0,0,91,130.077a11.684,11.684,0,0,0,3.07,7.567,67.725,67.725,0,0,0,7.525,7.232c1.129.989,2.3,2.012,3.536,3.128a1.368,1.368,0,0,0,1.83,0c1.24-1.116,2.407-2.139,3.536-3.128a67.719,67.719,0,0,0,7.525-7.232,11.683,11.683,0,0,0,3.07-7.567C121.092,125.186,117.741,121,112.885,121Z" transform="translate(-91 -121)"/></g></g></svg>