<svg xmlns="http://www.w3.org/2000/svg" width="19.33" height="19.33" viewBox="0 0 19.33 19.33"><defs><style>.a{fill:#de2657;}</style></defs><path class="a" d="M10.665,1a9.665,9.665,0,1,0,9.665,9.665A9.665,9.665,0,0,0,10.665,1Zm-.644,4.51a.644.644,0,1,1,1.289,0v4.51a.644.644,0,1,1-1.289,0Zm.644,10.954a5.808,5.808,0,0,1-5.8-5.8A5.748,5.748,0,0,1,7.044,6.142a.644.644,0,1,1,.8,1.005,4.51,4.51,0,1,0,5.645,0,.644.644,0,0,1,.8-1.005,5.748,5.748,0,0,1,2.178,4.523A5.808,5.808,0,0,1,10.665,16.464Z" transform="translate(-1 -1)"/></svg>