<svg xmlns="http://www.w3.org/2000/svg" width="49.132" height="39.387" viewBox="0 0 49.132 39.387"><defs><style>.a,.b{fill:#9b9b9b;}.b{stroke:#fff;}</style></defs><g transform="translate(-257.022 -687)"><g transform="translate(135.021 10)"><g transform="translate(122 677)"><g transform="translate(0 0)"><path class="a" d="M15.866,27.444a.928.928,0,0,1-.465-.125,55.515,55.515,0,0,1-7.631-5.491,31.476,31.476,0,0,1-5.293-5.672A11.963,11.963,0,0,1,0,9.352a9.825,9.825,0,0,1,2.506-6.58A8.214,8.214,0,0,1,8.622,0a8.486,8.486,0,0,1,7.245,4.3A8.486,8.486,0,0,1,23.111,0,8.261,8.261,0,0,1,28.99,2.5a9.685,9.685,0,0,1,2.742,6.862,12.2,12.2,0,0,1-2.524,6.795,31.883,31.883,0,0,1-5.285,5.669,55.707,55.707,0,0,1-7.589,5.49.93.93,0,0,1-.467.126Z" transform="matrix(0.875, -0.485, 0.485, 0.875, 0, 15.384)"/><path class="b" d="M12.1,20.924a.708.708,0,0,1-.354-.095,42.327,42.327,0,0,1-5.818-4.186,24,24,0,0,1-4.035-4.324A9.121,9.121,0,0,1,0,7.13,7.491,7.491,0,0,1,1.911,2.114,6.263,6.263,0,0,1,6.573,0,6.47,6.47,0,0,1,12.1,3.276,6.47,6.47,0,0,1,17.62,0,6.3,6.3,0,0,1,22.1,1.907a7.384,7.384,0,0,1,2.091,5.232,9.3,9.3,0,0,1-1.925,5.18,24.309,24.309,0,0,1-4.03,4.322,42.473,42.473,0,0,1-5.786,4.186.709.709,0,0,1-.356.1Z" transform="translate(27.708 7.232) rotate(31)"/></g></g></g></g></svg>