<svg xmlns="http://www.w3.org/2000/svg" width="28.733" height="28.734" viewBox="0 0 28.733 28.734"><defs><style>.a{fill:#1289ff;fill-rule:evenodd;}.b{fill:#fafafa;}</style></defs><g transform="translate(0)"><g transform="translate(0)"><path class="a" d="M603.539,332.714a5.649,5.649,0,0,0-6.826,6.827,5.649,5.649,0,0,0,0,9.653,5.649,5.649,0,0,0,6.827,6.826,5.649,5.649,0,0,0,9.653,0,5.649,5.649,0,0,0,6.825-6.827,5.649,5.649,0,0,0,0-9.653,5.649,5.649,0,0,0-6.827-6.826,5.649,5.649,0,0,0-9.653,0Z" transform="translate(-594 -330)"/></g><path class="b" d="M152.641,167.014l-6.418,6.418a.986.986,0,0,1-1.4,0l-3.209-3.209a.987.987,0,1,1,1.4-1.4l2.511,2.511,5.72-5.72a.987.987,0,1,1,1.4,1.4Zm0,0" transform="translate(-133.279 -155.158)"/></g></svg>