<svg id="facebook" xmlns="http://www.w3.org/2000/svg" width="29.316" height="29.316" viewBox="0 0 29.316 29.316">
  <path id="Path_14504" data-name="Path 14504" d="M29.316,14.658a14.662,14.662,0,0,1-12.368,14.48V18.9h3.415l.65-4.237H16.949v-2.75a2.119,2.119,0,0,1,2.389-2.289h1.848V6.012A22.546,22.546,0,0,0,17.9,5.726c-3.348,0-5.536,2.029-5.536,5.7v3.229H8.646V18.9h3.722V29.138a14.659,14.659,0,1,1,16.949-14.48Z" fill="#1877f2"/>
  <path id="Path_14505" data-name="Path 14505" d="M162.718,113.169l.65-4.237H159.3v-2.75a2.119,2.119,0,0,1,2.389-2.289h1.848v-3.607a22.541,22.541,0,0,0-3.281-.286c-3.348,0-5.537,2.029-5.537,5.7v3.229H151v4.237h3.722v10.243a14.813,14.813,0,0,0,4.581,0V113.169Z" transform="translate(-142.354 -94.274)" fill="#fff"/>
</svg>
